<svg xmlns="http://www.w3.org/2000/svg" viewBox="0 0 90 90"><defs><style>.cls-1{fill:#ffa400;}.cls-2{fill:#ffe9c2;}.cls-3{fill:#404041;}.cls-4{fill:#f7941d;}</style></defs><title>fox</title><g id="fox"><path class="cls-1" d="M13.14,33.47c4,4.16,10.36,4.86,14.63,1.13A10.37,10.37,0,0,0,28.62,20c-3-3.4-15.93-8.41-21.37-10.41A1.67,1.67,0,0,0,5,11.27C5.49,16.28,7.21,27.36,13.14,33.47Z"/><path class="cls-2" d="M45.33,60.73c-12.72,0-23.33-9.12-26.7-21.54a30.8,30.8,0,0,0-1.23,8.3c0,16.49,27.94,32.59,27.94,32.59S73.25,64,73.25,47.48A31.67,31.67,0,0,0,72,39.19C68.63,51.61,58,60.73,45.33,60.73Z"/><path class="cls-1" d="M45.33,60.73C58,60.73,68.63,51.61,72,39.19,68.63,26.78,58,17.64,45.33,17.64S22,26.78,18.62,39.19C22,51.61,32.6,60.73,45.33,60.73Z"/><path class="cls-1" d="M55.58,56.14C55.58,62.35,45.22,80,45.22,80S34.85,62.35,34.85,56.14s4.62-11.27,10.37-11.27S55.58,49.92,55.58,56.14Z"/><path class="cls-3" d="M49.18,77.2c0,1.84-1.88,3.36-4.18,3.36S40.82,79,40.82,77.2s1.88-3.34,4.19-3.34S49.18,75.35,49.18,77.2Z"/><path class="cls-1" d="M76.88,33.47c-4,4.16-10.37,4.86-14.65,1.13A10.39,10.39,0,0,1,61.4,20c3-3.4,15.91-8.41,21.35-10.41A1.67,1.67,0,0,1,85,11.26C84.51,16.28,82.8,27.36,76.88,33.47Z"/><path class="cls-4" d="M72,27.75c-1.8,1.9-4.19,2.6-5.51,1.44s-1-3.69.7-5.65,9.61-6,9.61-6S75.45,24.06,72,27.75Z"/><path class="cls-4" d="M17.84,27.75c1.78,1.9,4.18,2.6,5.5,1.44s1-3.69-.69-5.65-9.61-6-9.61-6S14.38,24.06,17.84,27.75Z"/><circle class="cls-3" cx="55.57" cy="56.41" r="2.51"/><circle class="cls-3" cx="34.43" cy="56.41" r="2.51"/></g></svg>